<mxfile host="Electron" agent="Mozilla/5.0 (Macintosh; Intel Mac OS X 10_15_7) AppleWebKit/537.36 (KHTML, like Gecko) draw.io/28.0.6 Chrome/138.0.7204.100 Electron/37.2.3 Safari/537.36" version="28.0.6">
  <diagram name="Page-1" id="pStSbidMZfwK0Z8k5fUG">
    <mxGraphModel dx="946" dy="679" grid="1" gridSize="10" guides="1" tooltips="1" connect="1" arrows="1" fold="1" page="1" pageScale="1" pageWidth="850" pageHeight="1100" math="0" shadow="0">
      <root>
        <mxCell id="0" />
        <mxCell id="1" parent="0" />
        <mxCell id="dXgxuX5rDgIQ2Ca84QZf-1" value="" style="edgeStyle=orthogonalEdgeStyle;rounded=0;hachureGap=4;orthogonalLoop=1;jettySize=auto;html=1;fontFamily=Architects Daughter;fontSource=https%3A%2F%2Ffonts.googleapis.com%2Fcss%3Ffamily%3DArchitects%2BDaughter;sketch=1;curveFitting=1;jiggle=2;" edge="1" parent="1" source="dXgxuX5rDgIQ2Ca84QZf-2" target="dXgxuX5rDgIQ2Ca84QZf-7">
          <mxGeometry relative="1" as="geometry" />
        </mxCell>
        <mxCell id="dXgxuX5rDgIQ2Ca84QZf-2" value="&lt;span style=&quot;text-wrap-mode: nowrap;&quot;&gt;imageRef&lt;/span&gt;" style="rounded=1;whiteSpace=wrap;html=1;hachureGap=4;fontFamily=Times New Roman;fillColor=#ffe6cc;strokeColor=#d79b00;fontSize=16;sketch=1;curveFitting=1;jiggle=2;" vertex="1" parent="1">
          <mxGeometry x="10" y="272.25" width="150" height="70" as="geometry" />
        </mxCell>
        <mxCell id="dXgxuX5rDgIQ2Ca84QZf-3" value="" style="edgeStyle=orthogonalEdgeStyle;rounded=0;hachureGap=4;orthogonalLoop=1;jettySize=auto;html=1;fontFamily=Architects Daughter;fontSource=https%3A%2F%2Ffonts.googleapis.com%2Fcss%3Ffamily%3DArchitects%2BDaughter;sketch=1;curveFitting=1;jiggle=2;" edge="1" parent="1" source="dXgxuX5rDgIQ2Ca84QZf-4" target="dXgxuX5rDgIQ2Ca84QZf-5">
          <mxGeometry relative="1" as="geometry" />
        </mxCell>
        <mxCell id="dXgxuX5rDgIQ2Ca84QZf-4" value="&lt;div&gt;&lt;font style=&quot;font-size: 14px;&quot;&gt;api版本是否支持&lt;span style=&quot;background-color: transparent; color: light-dark(rgb(0, 0, 0), rgb(255, 255, 255));&quot;&gt;SUPPORT_NOVA_IMAGE&lt;/span&gt;&lt;/font&gt;&lt;/div&gt;&lt;div&gt;&lt;font style=&quot;font-size: 14px;&quot;&gt;and&lt;/font&gt;&lt;/div&gt;&lt;font style=&quot;font-size: 14px;&quot;&gt;镜像中是否有snapshot&lt;/font&gt;" style="html=1;whiteSpace=wrap;aspect=fixed;shape=isoRectangle;hachureGap=4;fontFamily=Architects Daughter;fontSource=https%3A%2F%2Ffonts.googleapis.com%2Fcss%3Ffamily%3DArchitects%2BDaughter;fillColor=#f8cecc;strokeColor=#b85450;sketch=1;curveFitting=1;jiggle=2;" vertex="1" parent="1">
          <mxGeometry x="350" y="230" width="257.5" height="154.5" as="geometry" />
        </mxCell>
        <mxCell id="dXgxuX5rDgIQ2Ca84QZf-5" value="snapshot" style="rounded=1;whiteSpace=wrap;html=1;fontFamily=Architects Daughter;hachureGap=4;fontSource=https%3A%2F%2Ffonts.googleapis.com%2Fcss%3Ffamily%3DArchitects%2BDaughter;fillColor=#fff2cc;strokeColor=#d6b656;sketch=1;curveFitting=1;jiggle=2;" vertex="1" parent="1">
          <mxGeometry x="690" y="277.25" width="120" height="60" as="geometry" />
        </mxCell>
        <mxCell id="dXgxuX5rDgIQ2Ca84QZf-6" value="" style="edgeStyle=orthogonalEdgeStyle;rounded=0;hachureGap=4;orthogonalLoop=1;jettySize=auto;html=1;fontFamily=Architects Daughter;fontSource=https%3A%2F%2Ffonts.googleapis.com%2Fcss%3Ffamily%3DArchitects%2BDaughter;sketch=1;curveFitting=1;jiggle=2;" edge="1" parent="1" source="dXgxuX5rDgIQ2Ca84QZf-7" target="dXgxuX5rDgIQ2Ca84QZf-4">
          <mxGeometry relative="1" as="geometry" />
        </mxCell>
        <mxCell id="dXgxuX5rDgIQ2Ca84QZf-7" value="image_uuid&lt;div&gt;&lt;br&gt;&lt;div&gt;image_snapshot&lt;/div&gt;&lt;/div&gt;" style="shape=document;whiteSpace=wrap;html=1;boundedLbl=1;fontSize=16;fontFamily=Times New Roman;fillColor=#d5e8d4;strokeColor=#82b366;rounded=1;hachureGap=4;sketch=1;curveFitting=1;jiggle=2;" vertex="1" parent="1">
          <mxGeometry x="205" y="259.75" width="120" height="95" as="geometry" />
        </mxCell>
        <mxCell id="dXgxuX5rDgIQ2Ca84QZf-8" value="True" style="text;html=1;align=center;verticalAlign=middle;resizable=0;points=[];autosize=1;strokeColor=none;fillColor=none;fontFamily=Architects Daughter;fontSource=https%3A%2F%2Ffonts.googleapis.com%2Fcss%3Ffamily%3DArchitects%2BDaughter;sketch=1;curveFitting=1;jiggle=2;" vertex="1" parent="1">
          <mxGeometry x="620" y="277.25" width="50" height="30" as="geometry" />
        </mxCell>
        <mxCell id="dXgxuX5rDgIQ2Ca84QZf-9" value="" style="edgeStyle=segmentEdgeStyle;endArrow=classic;html=1;curved=0;rounded=0;endSize=8;startSize=8;hachureGap=4;fontFamily=Architects Daughter;fontSource=https%3A%2F%2Ffonts.googleapis.com%2Fcss%3Ffamily%3DArchitects%2BDaughter;exitX=0.501;exitY=0.982;exitDx=0;exitDy=0;exitPerimeter=0;entryX=0;entryY=0.5;entryDx=0;entryDy=0;sketch=1;curveFitting=1;jiggle=2;" edge="1" parent="1" source="dXgxuX5rDgIQ2Ca84QZf-4" target="dXgxuX5rDgIQ2Ca84QZf-11">
          <mxGeometry width="50" height="50" relative="1" as="geometry">
            <mxPoint x="540" y="392.25" as="sourcePoint" />
            <mxPoint x="600" y="432.25" as="targetPoint" />
            <Array as="points">
              <mxPoint x="479" y="432.25" />
            </Array>
          </mxGeometry>
        </mxCell>
        <mxCell id="dXgxuX5rDgIQ2Ca84QZf-10" value="False" style="text;html=1;align=center;verticalAlign=middle;resizable=0;points=[];autosize=1;strokeColor=none;fillColor=none;fontFamily=Architects Daughter;fontSource=https%3A%2F%2Ffonts.googleapis.com%2Fcss%3Ffamily%3DArchitects%2BDaughter;sketch=1;curveFitting=1;jiggle=2;" vertex="1" parent="1">
          <mxGeometry x="570" y="410.25" width="50" height="30" as="geometry" />
        </mxCell>
        <mxCell id="dXgxuX5rDgIQ2Ca84QZf-11" value="image_id" style="rounded=1;whiteSpace=wrap;html=1;fontFamily=Architects Daughter;hachureGap=4;fontSource=https%3A%2F%2Ffonts.googleapis.com%2Fcss%3Ffamily%3DArchitects%2BDaughter;fillColor=#fff2cc;strokeColor=#d6b656;sketch=1;curveFitting=1;jiggle=2;" vertex="1" parent="1">
          <mxGeometry x="690" y="402.25" width="120" height="60" as="geometry" />
        </mxCell>
      </root>
    </mxGraphModel>
  </diagram>
</mxfile>
